<?xml version="1.0" encoding="utf-8"?>
<!-- Generator: Adobe Illustrator 16.0.3, SVG Export Plug-In . SVG Version: 6.00 Build 0)  -->
<!DOCTYPE svg PUBLIC "-//W3C//DTD SVG 1.1//EN" "http://www.w3.org/Graphics/SVG/1.1/DTD/svg11.dtd">
<svg version="1.1" xmlns="http://www.w3.org/2000/svg" xmlns:xlink="http://www.w3.org/1999/xlink" x="0px" y="0px"
	 width="836.667px" height="248px" viewBox="0 0 836.667 248" enable-background="new 0 0 836.667 248" xml:space="preserve">
<g id="Calque_1">
	<path id="cercle" opacity="0.25" fill="#2E3E51" d="M128.238,117.787c0,33.291-26.989,60.291-60.284,60.291c-33.301,0-60.289-27-60.289-60.291
		c0-33.301,26.987-60.295,60.289-60.295C101.249,57.492,128.238,84.486,128.238,117.787z"/>
	<path opacity="0.25" fill="#3980BC" d="M203.832,117.787c0,33.291-26.989,60.291-60.284,60.291c-33.301,0-60.288-27-60.288-60.291
		c0-33.301,26.987-60.295,60.288-60.295C176.843,57.492,203.832,84.486,203.832,117.787z"/>
	<path opacity="0.25" fill="#8ACDC7" d="M279.425,117.787c0,33.291-26.989,60.291-60.284,60.291c-33.301,0-60.289-27-60.289-60.291
		c0-33.301,26.987-60.295,60.289-60.295C252.436,57.492,279.425,84.486,279.425,117.787z"/>
	<path opacity="0.25" fill="#43AE5B" d="M355.019,117.787c0,33.291-26.989,60.291-60.284,60.291c-33.301,0-60.289-27-60.289-60.291
		c0-33.301,26.987-60.295,60.289-60.295C328.03,57.492,355.019,84.486,355.019,117.787z"/>
	<path opacity="0.25" fill="#8945B0" d="M430.612,117.787c0,33.291-26.989,60.291-60.283,60.291c-33.301,0-60.289-27-60.289-60.291
		c0-33.301,26.987-60.295,60.289-60.295C403.623,57.492,430.612,84.486,430.612,117.787z"/>
	<path opacity="0.25" fill="#CA5280" d="M506.206,117.787c0,33.291-26.988,60.291-60.283,60.291c-33.301,0-60.289-27-60.289-60.291
		c0-33.301,26.988-60.295,60.289-60.295C479.217,57.492,506.206,84.486,506.206,117.787z"/>
	<path opacity="0.25" fill="#F9E3A2" d="M581.799,117.787c0,33.291-26.989,60.291-60.283,60.291c-33.302,0-60.289-27-60.289-60.291
		c0-33.301,26.987-60.295,60.289-60.295C554.81,57.492,581.799,84.486,581.799,117.787z"/>
	<path opacity="0.25" fill="#ED9C00" d="M657.393,117.787c0,33.291-26.989,60.291-60.283,60.291c-33.302,0-60.289-27-60.289-60.291
		c0-33.301,26.987-60.295,60.289-60.295C630.404,57.492,657.393,84.486,657.393,117.787z"/>
	<path opacity="0.25" fill="#CB5400" d="M732.987,117.787c0,33.291-26.99,60.291-60.283,60.291c-33.303,0-60.289-27-60.289-60.291
		c0-33.301,26.986-60.295,60.289-60.295C705.997,57.492,732.987,84.486,732.987,117.787z"/>
	<path opacity="0.25" fill="#B83925" d="M808.581,117.787c0,33.291-26.99,60.291-60.284,60.291c-33.302,0-60.288-27-60.288-60.291
		c0-33.301,26.986-60.295,60.288-60.295C781.59,57.492,808.581,84.486,808.581,117.787z"/>
	<path opacity="0.25" fill="#2E3E51" d="M148.532,117.787c0,33.291-26.989,60.291-60.284,60.291c-33.301,0-60.289-27-60.289-60.291
		c0-33.301,26.987-60.295,60.289-60.295C121.543,57.492,148.532,84.486,148.532,117.787z"/>
	<path opacity="0.25" fill="#3980BC" d="M224.126,117.787c0,33.291-26.989,60.291-60.284,60.291c-33.301,0-60.288-27-60.288-60.291
		c0-33.301,26.987-60.295,60.288-60.295C197.137,57.492,224.126,84.486,224.126,117.787z"/>
	<path opacity="0.25" fill="#8ACDC7" d="M299.719,117.787c0,33.291-26.989,60.291-60.284,60.291c-33.301,0-60.289-27-60.289-60.291
		c0-33.301,26.987-60.295,60.289-60.295C272.73,57.492,299.719,84.486,299.719,117.787z"/>
	<path opacity="0.25" fill="#43AE5B" d="M375.313,117.787c0,33.291-26.989,60.291-60.284,60.291c-33.301,0-60.289-27-60.289-60.291
		c0-33.301,26.987-60.295,60.289-60.295C348.324,57.492,375.313,84.486,375.313,117.787z"/>
	<path opacity="0.25" fill="#8945B0" d="M450.907,117.787c0,33.291-26.989,60.291-60.284,60.291c-33.301,0-60.289-27-60.289-60.291
		c0-33.301,26.987-60.295,60.289-60.295C423.917,57.492,450.907,84.486,450.907,117.787z"/>
	<path opacity="0.25" fill="#CA5280" d="M526.5,117.787c0,33.291-26.99,60.291-60.284,60.291c-33.302,0-60.289-27-60.289-60.291
		c0-33.301,26.987-60.295,60.289-60.295C499.51,57.492,526.5,84.486,526.5,117.787z"/>
	<path opacity="0.25" fill="#F9E3A2" d="M602.093,117.787c0,33.291-26.989,60.291-60.284,60.291c-33.301,0-60.288-27-60.288-60.291
		c0-33.301,26.987-60.295,60.288-60.295C575.104,57.492,602.093,84.486,602.093,117.787z"/>
	<path opacity="0.25" fill="#ED9C00" d="M677.687,117.787c0,33.291-26.989,60.291-60.284,60.291c-33.301,0-60.288-27-60.288-60.291
		c0-33.301,26.987-60.295,60.288-60.295C650.698,57.492,677.687,84.486,677.687,117.787z"/>
	<path opacity="0.25" fill="#CB5400" d="M753.28,117.787c0,33.291-26.988,60.291-60.283,60.291c-33.301,0-60.289-27-60.289-60.291
		c0-33.301,26.988-60.295,60.289-60.295C726.292,57.492,753.28,84.486,753.28,117.787z"/>
	<path opacity="0.25" fill="#B83925" d="M828.874,117.787c0,33.291-26.988,60.291-60.283,60.291c-33.301,0-60.289-27-60.289-60.291
		c0-33.301,26.988-60.295,60.289-60.295C801.885,57.492,828.874,84.486,828.874,117.787z"/>
</g>
<g id="Calque_2">
	<g>
		<path fill="#272727" d="M96.778,80.646c-3.75-8-11.25-13-20.25-13c-9.75,0-19.75,8-19.75,18c0,27.75,56.25,14.25,56.25,56
			c0,21.25-16.5,36-37.25,36c-19.25,0-35-11.75-39.75-30.5l11-3.5c4.25,13.75,13.5,23.5,28.75,23.5c14.5,0,26-11.5,26-26
			c0-14.25-11-18.75-22.5-22.75c-15.75-5.75-33.75-12.5-33.75-32c0-17.5,14.75-29.25,31.5-29.25c11.75,0,24.5,7.75,29.5,18.5
			L96.778,80.646z"/>
		<path fill="#272727" d="M223.278,59.646v69.25c0,11.75,0.25,23.5-7,33.25c-8,10.5-21.5,15.5-34.5,15.5s-26.5-5-34.5-15.5
			c-7.25-9.75-7-21.5-7-33.25v-69.25h11.25v65.25c0,22.25,2.5,42.25,30.25,42.25s30.25-20,30.25-42.25v-65.25H223.278z"/>
		<path fill="#272727" d="M363.274,169.646c0,17.75-0.5,33.75-11.5,49c-10.75,14.75-27.75,22.25-46,22.25
			c-30.25,0-55.25-17.75-57-49.5h11.25c1.25,24,21.5,39,44.75,39c14.5,0,28.5-5,37-17.25c9-13.25,10.25-28.25,10.25-43.75v-14.25
			h-0.5c-10.25,13.75-27.5,22.5-45,22.5c-33.5,0-56-28.25-56-60.5c0-33.25,23.75-60,57.5-60c18.75,0,32.75,8,43.5,22.5h0.5v-20
			h11.25V169.646z M261.774,116.646c0,26.5,17.5,50.5,45.5,50.5c29.5,0,45.5-24,45.5-51.75c0-26.75-18.25-47.75-46.25-47.75
			C280.024,67.646,261.774,91.646,261.774,116.646z"/>
		<path fill="#272727" d="M505.022,169.646c0,17.75-0.5,33.75-11.5,49c-10.75,14.75-27.75,22.25-46,22.25
			c-30.25,0-55.25-17.75-57-49.5h11.25c1.25,24,21.5,39,44.75,39c14.5,0,28.5-5,37-17.25c9-13.25,10.25-28.25,10.25-43.75v-14.25
			h-0.5c-10.25,13.75-27.5,22.5-45,22.5c-33.5,0-56-28.25-56-60.5c0-33.25,23.75-60,57.5-60c18.75,0,32.75,8,43.5,22.5h0.5v-20
			h11.25V169.646z M403.521,116.646c0,26.5,17.5,50.5,45.5,50.5c29.5,0,45.5-24,45.5-51.75c0-26.75-18.25-47.75-46.25-47.75
			C421.772,67.646,403.521,91.646,403.521,116.646z"/>
		<path fill="#272727" d="M563.768,21.146c0,5.75-4.5,10.25-10.25,10.25s-10.25-4.5-10.25-10.25c0-5.5,4.5-10.25,10.25-10.25
			S563.768,15.646,563.768,21.146z M559.018,175.146h-11.25v-115.5h11.25V175.146z"/>
		<path fill="#272727" d="M602.016,118.396c-0.75,29.25,19.5,48.75,46.25,48.75c18,0,32.5-10.75,40.75-26.25l9.5,5.5
			c-10.5,20-29,31.25-51.75,31.25c-34.25,0-56-27.75-56-60.5c0-32.25,22.25-60,56-60c35,0,55.75,28,55.5,61.25H602.016z
			 M691.016,107.896c-2.75-21.25-20.25-40.25-44-40.25c-23.5,0-43,18.5-45,40.25H691.016z"/>
		<path fill="#272727" d="M778.014,80.646c-3.75-8-11.25-13-20.25-13c-9.75,0-19.75,8-19.75,18c0,27.75,56.25,14.25,56.25,56
			c0,21.25-16.5,36-37.25,36c-19.25,0-35-11.75-39.75-30.5l11-3.5c4.25,13.75,13.5,23.5,28.75,23.5c14.5,0,26-11.5,26-26
			c0-14.25-11-18.75-22.5-22.75c-15.75-5.75-33.75-12.5-33.75-32c0-17.5,14.75-29.25,31.5-29.25c11.75,0,24.5,7.75,29.5,18.5
			L778.014,80.646z"/>
	</g>
</g>
</svg>
