<?xml version="1.0" encoding="utf-8"?>
<!-- Generator: Adobe Illustrator 16.0.3, SVG Export Plug-In . SVG Version: 6.00 Build 0)  -->
<!DOCTYPE svg PUBLIC "-//W3C//DTD SVG 1.1//EN" "http://www.w3.org/Graphics/SVG/1.1/DTD/svg11.dtd">
<svg version="1.1" id="Calque_1" xmlns="http://www.w3.org/2000/svg" xmlns:xlink="http://www.w3.org/1999/xlink" x="0px" y="0px"
	 width="999px" height="522px" viewBox="0 0 999 522" enable-background="new 0 0 999 522" xml:space="preserve">
<g opacity="0.6">
	<circle fill="none" stroke="#272727" stroke-miterlimit="10" cx="487.948" cy="264.079" r="150.968"/>
	<circle fill="none" stroke="#272727" stroke-width="0.5" stroke-miterlimit="10" cx="487.949" cy="264.079" r="228.043"/>
	<path fill="none" stroke="#272727" stroke-width="1.5" stroke-miterlimit="10" d="M561.315,264.079
		c0,40.521-32.844,73.368-73.366,73.368c-40.521,0-73.366-32.847-73.366-73.368c0-40.52,32.845-73.366,73.366-73.366
		C528.472,190.713,561.315,223.56,561.315,264.079z"/>
	<circle fill="#2E3E51" cx="424.145" cy="481.962" r="25.27"/>
	<circle fill="#B83925" cx="709.674" cy="318.097" r="25.27"/>
	<circle fill="#8ACDC7" cx="449.415" cy="322.24" r="25.27"/>
	<circle fill="#3980BC" cx="546.025" cy="401.824" r="25.27"/>
	<circle fill="#8945B0" cx="597.591" cy="158.545" r="25.27"/>
	<path fill="#43AE5B" d="M366.881,289.354c0,13.954-11.313,25.272-25.271,25.272c-13.954,0-25.27-11.318-25.27-25.272
		c0-13.959,11.315-25.272,25.27-25.272C355.567,264.081,366.881,275.395,366.881,289.354z"/>
	<circle fill="#F9E3A2" cx="559.047" cy="246.905" r="25.27"/>
	<circle fill="#CA5280" cx="449.415" cy="203.831" r="25.27"/>
	<path fill="#CB5400" d="M332.413,126.52c0,13.954-11.313,25.272-25.27,25.272c-13.959,0-25.271-11.318-25.271-25.272
		c0-13.959,11.312-25.274,25.271-25.274C321.1,101.245,332.413,112.561,332.413,126.52z"/>
	<circle fill="#ED9C00" cx="492.58" cy="36.036" r="25.27"/>
</g>
<text transform="matrix(1 0 0 1 -0.6367 337.4473)" fill="#272727" font-family="'GothamRounded-Light'" font-size="220">SUGGIES</text>
</svg>
