<?xml version="1.0" encoding="utf-8"?>
<!-- Generator: Adobe Illustrator 16.0.3, SVG Export Plug-In . SVG Version: 6.00 Build 0)  -->
<!DOCTYPE svg PUBLIC "-//W3C//DTD SVG 1.1//EN" "http://www.w3.org/Graphics/SVG/1.1/DTD/svg11.dtd">
<svg version="1.1" id="Calque_1" xmlns="http://www.w3.org/2000/svg" xmlns:xlink="http://www.w3.org/1999/xlink" x="0px" y="0px"
	 width="868px" height="211px" viewBox="0 0 868 211" enable-background="new 0 0 868 211" xml:space="preserve">
<path opacity="0.25" fill="#2E3E51" d="M130.375,105.834c0,31.217-25.308,56.535-56.528,56.535
	c-31.227,0-56.533-25.318-56.533-56.535c0-31.226,25.306-56.539,56.533-56.539C105.067,49.295,130.375,74.608,130.375,105.834z"/>
<path opacity="0.25" fill="#3980BC" d="M211.809,105.834c0,31.217-25.309,56.535-56.528,56.535
	c-31.227,0-56.532-25.318-56.532-56.535c0-31.226,25.306-56.539,56.532-56.539C186.5,49.295,211.809,74.608,211.809,105.834z"/>
<path opacity="0.25" fill="#8ACDC7" d="M293.243,105.834c0,31.217-25.308,56.535-56.528,56.535
	c-31.227,0-56.533-25.318-56.533-56.535c0-31.226,25.306-56.539,56.533-56.539C267.935,49.295,293.243,74.608,293.243,105.834z"/>
<path opacity="0.25" fill="#43AE5B" d="M374.677,105.834c0,31.217-25.308,56.535-56.528,56.535
	c-31.227,0-56.533-25.318-56.533-56.535c0-31.226,25.306-56.539,56.533-56.539C349.369,49.295,374.677,74.608,374.677,105.834z"/>
<path opacity="0.25" fill="#8945B0" d="M456.11,105.834c0,31.217-25.308,56.535-56.528,56.535
	c-31.227,0-56.532-25.318-56.532-56.535c0-31.226,25.306-56.539,56.532-56.539C430.803,49.295,456.11,74.608,456.11,105.834z"/>
<path opacity="0.25" fill="#CA5280" d="M537.544,105.834c0,31.217-25.308,56.535-56.527,56.535
	c-31.228,0-56.533-25.318-56.533-56.535c0-31.226,25.305-56.539,56.533-56.539C512.236,49.295,537.544,74.608,537.544,105.834z"/>
<path opacity="0.25" fill="#F9E3A2" d="M618.978,105.834c0,31.217-25.307,56.535-56.527,56.535
	c-31.227,0-56.533-25.318-56.533-56.535c0-31.226,25.307-56.539,56.533-56.539C593.671,49.295,618.978,74.608,618.978,105.834z"/>
<path opacity="0.25" fill="#ED9C00" d="M700.412,105.834c0,31.217-25.308,56.535-56.528,56.535
	c-31.227,0-56.532-25.318-56.532-56.535c0-31.226,25.306-56.539,56.532-56.539C675.104,49.295,700.412,74.608,700.412,105.834z"/>
<path opacity="0.25" fill="#CB5400" d="M781.847,105.834c0,31.217-25.309,56.535-56.529,56.535
	c-31.227,0-56.531-25.318-56.531-56.535c0-31.226,25.305-56.539,56.531-56.539C756.538,49.295,781.847,74.608,781.847,105.834z"/>
<path opacity="0.25" fill="#B83925" d="M863.28,105.834c0,31.217-25.309,56.535-56.528,56.535
	c-31.227,0-56.532-25.318-56.532-56.535c0-31.226,25.306-56.539,56.532-56.539C837.972,49.295,863.28,74.608,863.28,105.834z"/>
<path opacity="0.25" fill="#2E3E51" d="M121.78,114.17c0,31.217-25.308,56.535-56.528,56.535c-31.227,0-56.532-25.318-56.532-56.535
	c0-31.226,25.306-56.538,56.532-56.538C96.472,57.632,121.78,82.944,121.78,114.17z"/>
<path opacity="0.25" fill="#3980BC" d="M203.213,114.17c0,31.217-25.308,56.535-56.528,56.535
	c-31.226,0-56.532-25.318-56.532-56.535c0-31.226,25.307-56.538,56.532-56.538C177.906,57.632,203.213,82.944,203.213,114.17z"/>
<path opacity="0.25" fill="#8ACDC7" d="M284.647,114.17c0,31.217-25.308,56.535-56.528,56.535
	c-31.227,0-56.533-25.318-56.533-56.535c0-31.226,25.306-56.538,56.533-56.538C259.34,57.632,284.647,82.944,284.647,114.17z"/>
<path opacity="0.25" fill="#43AE5B" d="M366.082,114.17c0,31.217-25.308,56.535-56.528,56.535
	c-31.227,0-56.532-25.318-56.532-56.535c0-31.226,25.306-56.538,56.532-56.538C340.773,57.632,366.082,82.944,366.082,114.17z"/>
<path opacity="0.25" fill="#8945B0" d="M447.516,114.17c0,31.217-25.308,56.535-56.528,56.535
	c-31.227,0-56.533-25.318-56.533-56.535c0-31.226,25.306-56.538,56.533-56.538C422.208,57.632,447.516,82.944,447.516,114.17z"/>
<path fill="none" d="M528.949,114.17c0,31.217-25.308,56.535-56.528,56.535c-31.226,0-56.532-25.318-56.532-56.535
	c0-31.226,25.307-56.538,56.532-56.538C503.642,57.632,528.949,82.944,528.949,114.17z"/>
<path opacity="0.25" fill="#F9E3A2" d="M610.383,114.17c0,31.217-25.308,56.535-56.528,56.535
	c-31.227,0-56.532-25.318-56.532-56.535c0-31.226,25.306-56.538,56.532-56.538C585.075,57.632,610.383,82.944,610.383,114.17z"/>
<path opacity="0.25" fill="#ED9C00" d="M691.817,114.17c0,31.217-25.309,56.535-56.529,56.535
	c-31.227,0-56.531-25.318-56.531-56.535c0-31.226,25.305-56.538,56.531-56.538C666.509,57.632,691.817,82.944,691.817,114.17z"/>
<path opacity="0.25" fill="#CB5400" d="M773.251,114.17c0,31.217-25.309,56.535-56.527,56.535
	c-31.227,0-56.533-25.318-56.533-56.535c0-31.226,25.307-56.538,56.533-56.538C747.942,57.632,773.251,82.944,773.251,114.17z"/>
<path opacity="0.25" fill="#B83925" d="M854.685,114.17c0,31.217-25.308,56.535-56.527,56.535
	c-31.227,0-56.533-25.318-56.533-56.535c0-31.226,25.307-56.538,56.533-56.538C829.377,57.632,854.685,82.944,854.685,114.17z"/>
<text transform="matrix(1 0 0 1 13.9595 166.5244)" fill="#272727" font-family="'GothamRounded-Light'" font-size="225">suggies</text>
</svg>
