<?xml version="1.0" encoding="utf-8"?>
<!-- Generator: Adobe Illustrator 16.0.3, SVG Export Plug-In . SVG Version: 6.00 Build 0)  -->
<!DOCTYPE svg PUBLIC "-//W3C//DTD SVG 1.1//EN" "http://www.w3.org/Graphics/SVG/1.1/DTD/svg11.dtd">
<svg version="1.1" id="Calque_1" xmlns="http://www.w3.org/2000/svg" xmlns:xlink="http://www.w3.org/1999/xlink" x="0px" y="0px"
	 width="836px" height="159px" viewBox="0 0 836 159" enable-background="new 0 0 836 159" xml:space="preserve">
<path opacity="0.25" fill="#2E3E51" d="M134.463,75.408c0,35.588-28.851,64.45-64.443,64.45c-35.598,0-64.447-28.861-64.447-64.45
	c0-35.598,28.849-64.454,64.447-64.454C105.613,10.954,134.463,39.81,134.463,75.408z"/>
<path opacity="0.25" fill="#3980BC" d="M211.314,75.407c0,35.589-28.851,64.451-64.443,64.451
	c-35.598,0-64.447-28.861-64.447-64.451c0-35.597,28.849-64.453,64.447-64.453C182.463,10.954,211.314,39.81,211.314,75.407z"/>
<path opacity="0.25" fill="#8ACDC7" d="M288.166,75.407c0,35.589-28.851,64.451-64.442,64.451
	c-35.599,0-64.448-28.861-64.448-64.451c0-35.597,28.849-64.453,64.448-64.453C259.315,10.954,288.166,39.81,288.166,75.407z"/>
<path opacity="0.25" fill="#43AE5B" d="M365.017,75.407c0,35.589-28.851,64.451-64.442,64.451
	c-35.599,0-64.447-28.861-64.447-64.451c0-35.597,28.849-64.453,64.447-64.453C336.166,10.954,365.017,39.81,365.017,75.407z"/>
<path opacity="0.25" fill="#8945B0" d="M441.868,75.407c0,35.589-28.85,64.451-64.442,64.451c-35.598,0-64.447-28.861-64.447-64.451
	c0-35.597,28.849-64.453,64.447-64.453C413.018,10.954,441.868,39.81,441.868,75.407z"/>
<path opacity="0.25" fill="#CA5280" d="M518.72,75.407c0,35.589-28.851,64.451-64.442,64.451c-35.6,0-64.448-28.861-64.448-64.451
	c0-35.597,28.849-64.453,64.448-64.453C489.869,10.954,518.72,39.81,518.72,75.407z"/>
<path opacity="0.25" fill="#F9E3A2" d="M595.57,75.407c0,35.589-28.851,64.451-64.442,64.451c-35.598,0-64.447-28.861-64.447-64.451
	c0-35.597,28.85-64.453,64.447-64.453C566.72,10.954,595.57,39.81,595.57,75.407z"/>
<path opacity="0.25" fill="#ED9C00" d="M672.421,75.408c0,35.588-28.849,64.45-64.44,64.45c-35.598,0-64.448-28.861-64.448-64.45
	c0-35.598,28.851-64.454,64.448-64.454C643.572,10.954,672.421,39.81,672.421,75.408z"/>
<path opacity="0.25" fill="#CB5400" d="M749.272,75.407c0,35.589-28.851,64.451-64.441,64.451c-35.6,0-64.448-28.861-64.448-64.451
	c0-35.597,28.849-64.453,64.448-64.453C720.422,10.954,749.272,39.81,749.272,75.407z"/>
<path opacity="0.25" fill="#B83925" d="M826.124,75.407c0,35.588-28.852,64.449-64.44,64.449c-35.6,0-64.449-28.861-64.449-64.449
	c0-35.598,28.85-64.454,64.449-64.454C797.272,10.954,826.124,39.81,826.124,75.407z"/>
<path opacity="0.25" fill="#ED9C00" d="M672.421,75.408c0,35.588-28.849,64.45-64.44,64.45c-35.598,0-64.448-28.861-64.448-64.45
	c0-35.598,28.851-64.454,64.448-64.454C643.572,10.954,672.421,39.81,672.421,75.408z"/>
<path opacity="0.25" fill="#2E3E51" d="M134.766,88.408c0,35.588-28.851,64.449-64.443,64.449
	c-35.598,0-64.447-28.861-64.447-64.449c0-35.599,28.849-64.455,64.447-64.455C105.915,23.953,134.766,52.81,134.766,88.408z"/>
<path opacity="0.25" fill="#3980BC" d="M211.617,88.406c0,35.59-28.851,64.451-64.443,64.451c-35.598,0-64.447-28.861-64.447-64.451
	c0-35.597,28.849-64.453,64.447-64.453C182.766,23.953,211.617,52.81,211.617,88.406z"/>
<path opacity="0.25" fill="#8ACDC7" d="M288.468,88.406c0,35.59-28.851,64.451-64.442,64.451c-35.599,0-64.448-28.861-64.448-64.451
	c0-35.597,28.849-64.453,64.448-64.453C259.618,23.953,288.468,52.81,288.468,88.406z"/>
<path opacity="0.25" fill="#43AE5B" d="M365.319,88.406c0,35.59-28.851,64.451-64.442,64.451c-35.599,0-64.447-28.861-64.447-64.451
	c0-35.597,28.849-64.453,64.447-64.453C336.468,23.953,365.319,52.81,365.319,88.406z"/>
<path opacity="0.25" fill="#8945B0" d="M442.171,88.406c0,35.59-28.851,64.451-64.443,64.451c-35.598,0-64.447-28.861-64.447-64.451
	c0-35.597,28.849-64.453,64.447-64.453C413.32,23.953,442.171,52.81,442.171,88.406z"/>
<path opacity="0.25" fill="#CA5280" d="M519.022,88.406c0,35.59-28.852,64.451-64.443,64.451c-35.6,0-64.448-28.861-64.448-64.451
	c0-35.597,28.848-64.453,64.448-64.453C490.171,23.953,519.022,52.81,519.022,88.406z"/>
<path opacity="0.25" fill="#F9E3A2" d="M595.872,88.406c0,35.59-28.85,64.451-64.441,64.451c-35.598,0-64.447-28.861-64.447-64.451
	c0-35.597,28.85-64.453,64.447-64.453C567.022,23.953,595.872,52.81,595.872,88.406z"/>
<path opacity="0.25" fill="#ED9C00" d="M672.724,88.408c0,35.588-28.85,64.449-64.441,64.449c-35.598,0-64.447-28.861-64.447-64.449
	c0-35.599,28.85-64.455,64.447-64.455C643.874,23.953,672.724,52.81,672.724,88.408z"/>
<path opacity="0.25" fill="#CB5400" d="M749.575,88.406c0,35.59-28.852,64.451-64.441,64.451c-35.6,0-64.449-28.861-64.449-64.451
	c0-35.597,28.85-64.453,64.449-64.453C720.724,23.953,749.575,52.81,749.575,88.406z"/>
<path opacity="0.25" fill="#B83925" d="M826.427,88.407c0,35.588-28.852,64.449-64.441,64.449c-35.6,0-64.449-28.861-64.449-64.449
	c0-35.598,28.85-64.454,64.449-64.454C797.575,23.953,826.427,52.81,826.427,88.407z"/>
<path opacity="0.25" fill="#ED9C00" d="M672.724,88.408c0,35.588-28.85,64.449-64.441,64.449c-35.598,0-64.447-28.861-64.447-64.449
	c0-35.599,28.85-64.455,64.447-64.455C643.874,23.953,672.724,52.81,672.724,88.408z"/>
<text transform="matrix(1 0 0 1 10.4551 147.4668)" fill="#272727" font-family="'ProximaNova-Light'" font-size="200">SUGGIES</text>
</svg>
