<svg xmlns="http://www.w3.org/2000/svg" xmlns:xlink="http://www.w3.org/1999/xlink" version="1.1" id="Layer_1" x="0px" y="0px" width="100px" height="100px" viewBox="5.0 -10.0 100.0 135.0" enable-background="new 0 0 100 100" xml:space="preserve">
<path d="M68.961,63.421c5.13-6.358,7.918-14.218,7.918-22.481C76.879,21.123,60.757,5,40.94,5C21.122,5,5,21.123,5,40.94  c0,19.81,16.122,35.931,35.94,35.931c8.389,0,16.335-2.859,22.746-8.122L89.4,94.699l5.324-5.27L68.961,63.421z M40.94,73.126  c-17.754,0-32.193-14.438-32.193-32.186c0-17.754,14.439-32.192,32.193-32.192c17.746,0,32.193,14.438,32.193,32.192  C73.133,58.688,58.686,73.126,40.94,73.126z"/></svg>